<?xml version="1.0" encoding="utf-8"?>
<svg xmlns="http://www.w3.org/2000/svg" width="350" height="350" class="segno"><path transform="scale(10)" class="qrline" stroke="#1c1a17" d="M3 3.5h7m1 0h1m2 0h4m2 0h3m2 0h7m-29 1h1m5 0h1m1 0h3m3 0h1m3 0h1m3 0h1m5 0h1m-29 1h1m1 0h3m1 0h1m3 0h4m1 0h1m2 0h3m1 0h1m1 0h3m1 0h1m-29 1h1m1 0h3m1 0h1m1 0h1m3 0h2m1 0h3m1 0h1m2 0h1m1 0h3m1 0h1m-29 1h1m1 0h3m1 0h1m2 0h1m1 0h2m2 0h1m1 0h1m1 0h1m2 0h1m1 0h3m1 0h1m-29 1h1m5 0h1m3 0h1m1 0h1m1 0h1m4 0h2m1 0h1m5 0h1m-29 1h7m1 0h1m1 0h1m1 0h1m1 0h1m1 0h1m1 0h1m1 0h1m1 0h7m-21 1h5m2 0h5m-20 1h1m1 0h2m1 0h3m9 0h2m3 0h1m2 0h1m1 0h2m-26 1h1m1 0h1m1 0h1m1 0h3m2 0h1m4 0h4m1 0h1m3 0h1m-27 1h1m1 0h3m2 0h2m1 0h1m3 0h2m3 0h2m1 0h1m1 0h2m-27 1h3m1 0h1m2 0h4m1 0h1m2 0h1m11 0h1m-29 1h8m4 0h1m2 0h3m5 0h1m1 0h2m-27 1h1m1 0h3m2 0h1m1 0h1m1 0h1m2 0h2m1 0h3m2 0h1m3 0h3m-29 1h2m4 0h1m1 0h2m3 0h1m2 0h1m2 0h1m2 0h1m3 0h3m-27 1h2m3 0h5m3 0h1m2 0h3m3 0h1m2 0h1m-28 1h1m2 0h4m1 0h1m1 0h2m2 0h1m1 0h1m2 0h3m2 0h2m1 0h1m-27 1h4m2 0h2m3 0h1m2 0h3m3 0h1m1 0h1m1 0h3m-28 1h1m2 0h1m2 0h3m1 0h2m1 0h3m1 0h1m2 0h2m2 0h1m1 0h1m-22 1h1m2 0h2m2 0h7m4 0h1m2 0h1m-26 1h3m2 0h2m1 0h1m1 0h1m1 0h2m2 0h10m-19 1h5m4 0h2m1 0h1m3 0h5m-29 1h7m1 0h2m2 0h1m1 0h1m1 0h2m1 0h2m1 0h1m1 0h2m1 0h1m-28 1h1m5 0h1m1 0h4m1 0h3m2 0h1m1 0h1m3 0h2m1 0h1m-28 1h1m1 0h3m1 0h1m4 0h1m3 0h3m2 0h5m1 0h1m-27 1h1m1 0h3m1 0h1m1 0h4m3 0h1m1 0h1m2 0h2m2 0h2m2 0h1m-29 1h1m1 0h3m1 0h1m1 0h1m1 0h1m5 0h1m1 0h1m1 0h2m1 0h1m2 0h1m1 0h1m-29 1h1m5 0h1m5 0h1m3 0h1m1 0h1m1 0h2m1 0h3m1 0h1m-28 1h7m1 0h1m7 0h1m2 0h2m2 0h1m3 0h1"/></svg>
